<?xml version="1.0" encoding="UTF-8"?>
<!-- Generator: visioncortex VTracer -->
<svg id="svg" version="1.1" xmlns="http://www.w3.org/2000/svg" style="display: block;" viewBox="0 0 500 500"><path d="M0 0 C165 0 330 0 500 0 C500 165 500 330 500 500 C335 500 170 500 0 500 C0 335 0 170 0 0 Z " transform="translate(0,0)" style="fill: #000000;"/><path d="M0 0 C78.27338129 0 78.27338129 0 92 12 C98.97508436 21.1277156 102.02153726 29.51986703 101 41 C99.01743265 51.19606065 92.98690754 58.72163196 85 65 C84.34 65.66 83.68 66.32 83 67 C83.94359375 67.41958984 83.94359375 67.41958984 84.90625 67.84765625 C96.02953737 73.05750922 102.69407605 79.36269165 107.109375 90.8984375 C110.1757554 101.57697275 107.67856189 112.92910438 102.64453125 122.60546875 C94.43996667 135.73717131 83.7242441 138.79307311 69 143 C46.23 143 23.46 143 0 143 C0 95.81 0 48.62 0 0 Z " transform="translate(320,173)" style="fill: #FAFAF9;"/><path d="M0 0 C12.87 -0.103125 25.74 -0.20625 39 -0.3125 C43.03089844 -0.35802002 47.06179687 -0.40354004 51.21484375 -0.45043945 C56.22070312 -0.47302246 56.22070312 -0.47302246 58.58032227 -0.47721863 C60.19302312 -0.4847873 61.80569968 -0.50213925 63.41821289 -0.52787781 C76.79321436 -0.73028499 91.76211744 0.1209235 102.3984375 9.3515625 C111.19410146 18.40466053 114.68409549 28.1189297 114.53637695 40.65429688 C114.05668612 51.2761917 109.80279892 59.27340957 102.45703125 66.875 C95.76215224 72.66516563 85.90709755 77 77 77 C77 77.99 77 78.98 77 80 C77.99 80.2784375 77.99 80.2784375 79 80.5625 C95.57397097 88.50419442 105.3933475 109.31877188 114.71362305 124.21411133 C115.18453369 124.96587646 115.65544434 125.7176416 116.140625 126.4921875 C116.60275391 127.23049805 117.06488281 127.96880859 117.54101562 128.72949219 C119.57554562 131.89567842 121.72501145 134.98065605 123.88964844 138.05908203 C125 140 125 140 125 143 C117.38751183 144.26826024 109.50488944 145.22575977 102 143 C96.47675982 138.93359564 93.74974843 132.16868794 90.71826172 126.19775391 C87.80893247 120.7833756 84.36762987 115.73042101 80.93301392 110.63882446 C79.78311196 108.92436855 78.65347114 107.19814293 77.52807617 105.4675293 C69.75462703 93.68265486 62.68191673 84.56063891 49 80 C34.15 79.505 34.15 79.505 19 79 C19 100.12 19 121.24 19 143 C12.73 143 6.46 143 0 143 C0 95.81 0 48.62 0 0 Z " transform="translate(77,173)" style="fill: #F9F9F9;"/><path d="M0 0 C6.27 0 12.54 0 19 0 C19.04645811 13.74380431 19.08193753 27.48758975 19.10362434 41.23145676 C19.11403592 47.61413102 19.12814702 53.99675132 19.15087891 60.37939453 C19.17270108 66.54560116 19.18458836 72.71175607 19.18975449 78.87799835 C19.19343345 81.2237657 19.20061733 83.5695304 19.21146011 85.91527557 C19.22609968 89.21538789 19.22797275 92.51528983 19.22705078 95.81542969 C19.23424133 96.7728154 19.24143188 97.73020111 19.24884033 98.71659851 C19.21023566 111.58998269 17.26267935 126.5868491 8.07421875 136.40234375 C-4.27580456 145.91488524 -17.88484736 147.37516199 -33 146 C-41.6133967 143.88827202 -48.57097767 139.7832862 -53.625 132.4375 C-59.19224134 122.81644215 -60.47842375 114.00374633 -60 103 C-51.585 102.01 -51.585 102.01 -43 101 C-42.731875 102.629375 -42.46375 104.25875 -42.1875 105.9375 C-40.15727447 117.3033971 -40.15727447 117.3033971 -33 126 C-27.51424329 129.56070906 -20.26106 128.52957574 -14 128 C-9.61644426 126.80772995 -7.43116356 124.5710004 -4.6875 120.9375 C-0.74884852 113.04717493 -0.70075409 103.65593943 -0.68115234 95.02075195 C-0.66608391 93.4675248 -0.66608391 93.4675248 -0.65071106 91.88291931 C-0.62011803 88.50137832 -0.60291087 85.11991561 -0.5859375 81.73828125 C-0.56720661 79.37744993 -0.5476318 77.01662516 -0.5272522 74.6558075 C-0.47612796 68.47295007 -0.43639715 62.29007098 -0.39910889 56.1071167 C-0.35894516 49.78555022 -0.30790947 43.46407231 -0.2578125 37.14257812 C-0.16128678 24.76178114 -0.07680783 12.38093392 0 0 Z " transform="translate(271,172)" style="fill: #F7F7F7;"/><path d="M0 0 C7.63204278 -0.09216825 15.26212984 -0.17171047 22.89428711 -0.21972656 C25.48680185 -0.23975721 28.07927188 -0.26698967 30.67163086 -0.30175781 C34.41271033 -0.35065141 38.1531889 -0.37305539 41.89453125 -0.390625 C43.61395683 -0.42159271 43.61395683 -0.42159271 45.36811829 -0.45318604 C54.04505728 -0.45556856 62.03267054 0.79237193 68.9375 6.375 C69.618125 7.24125 70.29875 8.1075 71 9 C71.763125 9.804375 72.52625 10.60875 73.3125 11.4375 C76.25676885 17.65317868 76.10488344 24.85505265 74.33984375 31.4765625 C71.28047144 38.33697313 65.92865033 42.46268227 59.0456543 45.14746094 C52.73964888 47.35345723 46.95901915 47.51471626 40.33203125 47.390625 C39.17120529 47.38496521 38.01037933 47.37930542 36.81437683 47.37347412 C33.14664539 47.35127982 29.47993069 47.30111402 25.8125 47.25 C23.30925901 47.22991316 20.80600254 47.21166625 18.30273438 47.1953125 C12.20112654 47.15489112 6.10168649 47.07656351 0 47 C0 31.49 0 15.98 0 0 Z " transform="translate(96,189)" style="fill: #020202;"/><path d="M0 0 C7.38375 -0.061875 14.7675 -0.12375 22.375 -0.1875 C25.8407251 -0.22846802 25.8407251 -0.22846802 29.37646484 -0.27026367 C31.23795044 -0.27903755 33.09944185 -0.28667935 34.9609375 -0.29296875 C36.37403198 -0.3159906 36.37403198 -0.3159906 37.81567383 -0.33947754 C46.70445203 -0.34293262 54.96022641 1.26995173 62 7 C68.22417868 13.50709589 69.53590095 19.14741699 69.3828125 27.9609375 C68.62230693 33.99842051 65.45423499 38.07527722 61.875 42.8125 C54.27790532 48.59289813 45.70147376 49.58428953 36.42578125 49.390625 C35.49326538 49.38659668 34.56074951 49.38256836 33.59997559 49.37841797 C30.1706122 49.35774653 26.74153288 49.30190459 23.3125 49.25 C15.619375 49.1675 7.92625 49.085 0 49 C0 32.83 0 16.66 0 0 Z " transform="translate(339,250)" style="fill: #020202;"/><path d="M0 0 C6.6825 -0.061875 13.365 -0.12375 20.25 -0.1875 C23.3751709 -0.22846802 23.3751709 -0.22846802 26.56347656 -0.27026367 C48.38609957 -0.43708189 48.38609957 -0.43708189 57.0625 4.875 C62.29797654 10.61713556 63.3221588 15.85041778 63.2109375 23.40234375 C62.76052929 28.94903745 61.23341815 32.67633174 57.4375 36.75 C50.09560541 42.11283627 42.29963192 43.59326938 33.3984375 43.390625 C32.11610229 43.38458252 32.11610229 43.38458252 30.80786133 43.37841797 C27.66335082 43.35774327 24.51915013 43.3019011 21.375 43.25 C10.794375 43.12625 10.794375 43.12625 0 43 C0 28.81 0 14.62 0 0 Z " transform="translate(339,190)" style="fill: #020202;"/></svg>